<svg xmlns="http://www.w3.org/2000/svg" viewBox="0 0 128 128" role="img" aria-labelledby="title">
  <title id="title">Hyper-Knowledge</title>
  <g fill="none" stroke="#202229" stroke-width="7" stroke-linecap="round">
    <path d="M56 25C47 15 32 16 24 26c-6 7-5 16-10 22-8 9-8 23 0 32 5 6 4 15 10 22 8 10 23 11 32 1"/>
    <path d="M72 25c9-10 24-9 32 1 6 7 5 16 10 22 8 9 8 23 0 32-5 6-4 15-10 22-8 10-23 11-32 1"/>
  </g>
  <rect x="18" y="52" width="92" height="25" rx="12.5" fill="none" stroke="#6F9B8A" stroke-width="5"/>
  <circle cx="39" cy="64.5" r="6" fill="#202229"/>
  <circle cx="64" cy="64.5" r="6" fill="#6F9B8A"/>
  <circle cx="89" cy="64.5" r="6" fill="#202229"/>
</svg>
